<?xml version="1.0" encoding="UTF-8" standalone="no"?>
<!-- Generator: Adobe Illustrator 19.0.0, SVG Export Plug-In . SVG Version: 6.00 Build 0)  -->

<svg
   version="1.1"
   id="Layer_1"
   x="0px"
   y="0px"
   viewBox="0 0 221.5 196.5"
   xml:space="preserve"
   sodipodi:docname="nshint_icon.svg"
   inkscape:version="1.4.2 (ebf0e940, 2025-05-08)"
   width="221.5"
   height="196.5"
   xmlns:inkscape="http://www.inkscape.org/namespaces/inkscape"
   xmlns:sodipodi="http://sodipodi.sourceforge.net/DTD/sodipodi-0.dtd"
   xmlns="http://www.w3.org/2000/svg"
   xmlns:svg="http://www.w3.org/2000/svg"><defs
   id="defs1" /><sodipodi:namedview
   id="namedview1"
   pagecolor="#ffffff"
   bordercolor="#000000"
   borderopacity="0.25"
   inkscape:showpageshadow="2"
   inkscape:pageopacity="0.0"
   inkscape:pagecheckerboard="0"
   inkscape:deskcolor="#d1d1d1"
   inkscape:lockguides="false"
   showgrid="false"
   showguides="true"
   inkscape:zoom="2.2334869"
   inkscape:cx="102.08253"
   inkscape:cy="102.3064"
   inkscape:window-width="1312"
   inkscape:window-height="684"
   inkscape:window-x="22"
   inkscape:window-y="25"
   inkscape:window-maximized="0"
   inkscape:current-layer="Layer_1"><inkscape:grid
     id="grid1"
     units="px"
     originx="0"
     originy="0"
     spacingx="1"
     spacingy="1"
     empcolor="#0099e5"
     empopacity="0.30196078"
     color="#0099e5"
     opacity="0.14902"
     empspacing="5"
     enabled="true"
     visible="false" /></sodipodi:namedview>
<style
   type="text/css"
   id="style1">
	.st0{fill:#3498db;}
</style>
<path
   id="XMLID_19_"
   class="st0"
   d="M 221.5,196.5 H 0 V 0 H 221.5 Z M 5,191.5 H 216.5 V 5 H 5 Z"
   style="stroke-width:0.661637"
   sodipodi:nodetypes="cccccccccc" />
<g
   id="XMLID_3_"
   transform="translate(-45.3,-4.4)">
	<path
   id="XMLID_17_"
   class="st0"
   d="m 76.5,60.4 c 0.5,0.1 0.9,0.2 1.3,0.4 0.4,0.2 0.8,0.4 1.1,0.8 0.4,0.3 0.8,0.8 1.2,1.3 l 45.5,58 c -0.2,-1.4 -0.3,-2.8 -0.3,-4.1 -0.1,-1.3 -0.1,-2.6 -0.1,-3.8 V 60.3 h 14.2 V 147 h -8.3 c -1.3,0 -2.3,-0.2 -3.2,-0.6 -0.8,-0.4 -1.7,-1.1 -2.5,-2.2 L 80.1,86.5 c 0.1,1.3 0.2,2.5 0.3,3.8 0.1,1.3 0.1,2.4 0.1,3.5 V 147 H 66.3 V 60.3 h 8.5 c 0.6,0 1.2,0 1.7,0.1 z" />
	<path
   id="XMLID_15_"
   class="st0"
   d="m 197.5,76 c -0.4,0.9 -1,1.5 -1.5,1.9 -0.6,0.4 -1.3,0.5 -2.1,0.5 -0.8,0 -1.7,-0.3 -2.7,-0.9 -1,-0.6 -2.2,-1.3 -3.5,-2.1 -1.4,-0.8 -3,-1.4 -4.8,-2.1 -1.8,-0.6 -4,-0.9 -6.4,-0.9 -2.2,0 -4.2,0.3 -5.9,0.8 -1.7,0.5 -3.1,1.3 -4.2,2.2 -1.1,0.9 -2,2.1 -2.5,3.5 -0.6,1.3 -0.8,2.8 -0.8,4.4 0,2 0.6,3.7 1.7,5.1 1.1,1.4 2.6,2.5 4.5,3.5 1.9,1 4,1.8 6.4,2.6 2.4,0.8 4.8,1.6 7.4,2.4 2.5,0.9 5,1.9 7.4,3 2.4,1.1 4.5,2.6 6.4,4.3 1.9,1.7 3.4,3.9 4.5,6.4 1.1,2.5 1.7,5.6 1.7,9.2 0,3.9 -0.7,7.6 -2,11 -1.3,3.4 -3.3,6.4 -5.9,8.9 -2.6,2.5 -5.7,4.5 -9.5,6 -3.7,1.5 -8,2.2 -12.8,2.2 -2.8,0 -5.5,-0.3 -8.2,-0.8 -2.7,-0.5 -5.2,-1.3 -7.7,-2.3 -2.5,-1 -4.8,-2.2 -6.9,-3.6 -2.1,-1.4 -4.1,-3 -5.7,-4.7 l 4.7,-7.7 c 0.4,-0.6 1,-1 1.6,-1.4 0.6,-0.4 1.3,-0.6 2.1,-0.6 1,0 2.1,0.4 3.2,1.2 1.2,0.8 2.5,1.7 4.1,2.7 1.6,1 3.4,1.9 5.6,2.7 2.1,0.8 4.7,1.2 7.7,1.2 4.6,0 8.2,-1.1 10.7,-3.3 2.5,-2.2 3.8,-5.3 3.8,-9.4 0,-2.3 -0.6,-4.1 -1.7,-5.6 -1.1,-1.4 -2.7,-2.6 -4.5,-3.6 -1.9,-1 -4,-1.8 -6.4,-2.5 -2.4,-0.7 -4.8,-1.4 -7.3,-2.2 -2.5,-0.8 -4.9,-1.8 -7.3,-2.9 -2.4,-1.1 -4.5,-2.6 -6.4,-4.4 -1.9,-1.8 -3.4,-4 -4.5,-6.8 -1.1,-2.7 -1.7,-6 -1.7,-10 0,-3.2 0.6,-6.2 1.9,-9.2 1.3,-3 3.1,-5.7 5.5,-8 2.4,-2.3 5.4,-4.2 8.9,-5.6 3.5,-1.4 7.5,-2.1 12.1,-2.1 5.1,0 9.8,0.8 14.2,2.4 4.3,1.6 8,3.8 11,6.7 z" />
	
	
	
	
	<path
   id="XMLID_4_"
   class="st0"
   d="M 227.8,93.2 V 80.4 c 0,-0.7 0,-1.3 0.1,-1.8 0.1,-0.5 0.3,-1.1 0.6,-1.8 -0.4,0.6 -0.9,1.1 -1.3,1.4 -0.4,0.3 -0.9,0.7 -1.5,1 l -11.3,6.5 -1.5,-2.6 11.3,-6.6 c 0.6,-0.3 1.1,-0.6 1.6,-0.7 0.5,-0.2 1.1,-0.3 1.9,-0.4 -0.8,-0.1 -1.4,-0.3 -1.9,-0.5 -0.5,-0.2 -1,-0.5 -1.6,-0.8 l -11.4,-6.6 1.6,-2.7 11.3,6.6 c 0.6,0.4 1.1,0.8 1.5,1.2 0.4,0.4 0.8,0.9 1.4,1.6 -0.3,-0.8 -0.5,-1.4 -0.7,-2 -0.1,-0.6 -0.2,-1.2 -0.2,-1.9 V 57.4 h 3.1 v 12.8 c 0,0.7 -0.1,1.4 -0.2,1.9 -0.1,0.6 -0.3,1.2 -0.6,2 0.5,-0.7 0.9,-1.2 1.3,-1.6 0.4,-0.4 0.9,-0.8 1.6,-1.1 l 11.3,-6.5 1.6,2.7 -11.3,6.5 c -0.6,0.4 -1.2,0.6 -1.7,0.8 -0.5,0.2 -1.1,0.3 -1.8,0.4 0.7,0.1 1.3,0.3 1.8,0.4 0.5,0.2 1,0.4 1.6,0.7 l 11.3,6.6 -1.5,2.7 -11.2,-6.5 c -0.6,-0.4 -1.1,-0.7 -1.5,-1 -0.4,-0.3 -0.9,-0.8 -1.4,-1.5 0.2,0.7 0.4,1.3 0.6,1.9 0.1,0.5 0.2,1.1 0.2,1.8 v 12.8 z" />
</g>
</svg>
